{
  "accessors": [
    {
      "bufferView": 2,
      "componentType": 5126,
      "count": 30690,
      "max": [
        3.9738025665283203,
        3.293004274368286,
        4.036214828491211
      ],
      "min": [
        -3.811168909072876,
        -0.043562568724155426,
        -4.246215343475342
      ],
      "type": "VEC3"
    },
    {
      "bufferView": 2,
      "byteOffset": 368280,
      "componentType": 5126,
      "count": 30690,
      "max": [
        0.9999635815620422,
        0.9999872446060181,
        0.9999184012413025
      ],
      "min": [
        -0.9999951720237732,
        -0.9999879598617554,
        -0.9997327923774719
      ],
      "type": "VEC3"
    },
    {
      "bufferView": 3,
      "componentType": 5126,
      "count": 30690,
      "max": [
        0.9999550580978394,
        0.999991774559021,
        0.9999468922615051,
        1.0
      ],
      "min": [
        -0.999961256980896,
        -0.999989926815033,
        -0.9999698996543884,
        -1.0
      ],
      "type": "VEC4"
    },
    {
      "bufferView": 1,
      "componentType": 5126,
      "count": 30690,
      "max": [
        0.9951795935630798,
        0.9958928823471069
      ],
      "min": [
        0.0051534175872802734,
        0.008579850196838379
      ],
      "type": "VEC2"
    },
    {
      "bufferView": 1,
      "byteOffset": 245520,
      "componentType": 5126,
      "count": 30690,
      "max": [
        0.9951795935630798,
        0.9958928823471069
      ],
      "min": [
        0.0051534175872802734,
        0.008579850196838379
      ],
      "type": "VEC2"
    },
    {
      "bufferView": 1,
      "byteOffset": 491040,
      "componentType": 5126,
      "count": 30690,
      "max": [
        0.9951795935630798,
        0.9958928823471069
      ],
      "min": [
        0.0051534175872802734,
        0.008579850196838379
      ],
      "type": "VEC2"
    },
    {
      "bufferView": 1,
      "byteOffset": 736560,
      "componentType": 5126,
      "count": 30690,
      "max": [
        0.9951795935630798,
        0.9958928823471069
      ],
      "min": [
        0.0051534175872802734,
        0.008579850196838379
      ],
      "type": "VEC2"
    },
    {
      "bufferView": 1,
      "byteOffset": 982080,
      "componentType": 5126,
      "count": 30690,
      "max": [
        0.9951795935630798,
        0.9958928823471069
      ],
      "min": [
        0.0051534175872802734,
        0.008579850196838379
      ],
      "type": "VEC2"
    },
    {
      "bufferView": 1,
      "byteOffset": 1227600,
      "componentType": 5126,
      "count": 30690,
      "max": [
        0.9951795935630798,
        0.9958928823471069
      ],
      "min": [
        0.0051534175872802734,
        0.008579850196838379
      ],
      "type": "VEC2"
    },
    {
      "bufferView": 0,
      "componentType": 5125,
      "count": 176736,
      "type": "SCALAR"
    }
  ],
  "asset": {
    "extras": {
      "author": "alfredonicolasalarcon (https://sketchfab.com/alfredonicolasalarcon)",
      "license": "CC-BY-4.0 (http://creativecommons.org/licenses/by/4.0/)",
      "source": "https://sketchfab.com/3d-models/octopus-3e08df9bc33f462bafe1fb42110e8e88",
      "title": "Octopus"
    },
    "generator": "Sketchfab-12.82.2",
    "version": "2.0"
  },
  "bufferViews": [
    {
      "buffer": 0,
      "byteLength": 706944,
      "name": "floatBufferViews",
      "target": 34963
    },
    {
      "buffer": 0,
      "byteLength": 1473120,
      "byteOffset": 706944,
      "byteStride": 8,
      "name": "floatBufferViews",
      "target": 34962
    },
    {
      "buffer": 0,
      "byteLength": 736560,
      "byteOffset": 2180064,
      "byteStride": 12,
      "name": "floatBufferViews",
      "target": 34962
    },
    {
      "buffer": 0,
      "byteLength": 491040,
      "byteOffset": 2916624,
      "byteStride": 16,
      "name": "floatBufferViews",
      "target": 34962
    }
  ],
  "buffers": [
    {
      "byteLength": 3407664,
      "uri": "scene.bin"
    }
  ],
  "extensionsRequired": [
    "KHR_materials_pbrSpecularGlossiness"
  ],
  "extensionsUsed": [
    "KHR_materials_pbrSpecularGlossiness"
  ],
  "images": [
    {
      "uri": "textures/material_0_diffuse.png"
    },
    {
      "uri": "textures/material_0_specularGlossiness.png"
    },
    {
      "uri": "textures/material_0_emissive.png"
    },
    {
      "uri": "textures/material_0_normal.png"
    },
    {
      "uri": "textures/material_0_occlusion.png"
    }
  ],
  "materials": [
    {
      "doubleSided": true,
      "emissiveFactor": [
        1.0,
        1.0,
        1.0
      ],
      "emissiveTexture": {
        "index": 2
      },
      "extensions": {
        "KHR_materials_pbrSpecularGlossiness": {
          "diffuseFactor": [
            1.0,
            1.0,
            1.0,
            1.0
          ],
          "diffuseTexture": {
            "index": 0
          },
          "glossinessFactor": 1.0,
          "specularFactor": [
            1.0,
            1.0,
            1.0
          ],
          "specularGlossinessTexture": {
            "index": 1
          }
        }
      },
      "name": "material_0",
      "normalTexture": {
        "index": 3
      },
      "occlusionTexture": {
        "index": 4
      }
    }
  ],
  "meshes": [
    {
      "name": "Object_0",
      "primitives": [
        {
          "attributes": {
            "NORMAL": 1,
            "POSITION": 0,
            "TANGENT": 2,
            "TEXCOORD_0": 3,
            "TEXCOORD_1": 4,
            "TEXCOORD_2": 5,
            "TEXCOORD_3": 6,
            "TEXCOORD_4": 7,
            "TEXCOORD_5": 8
          },
          "indices": 9,
          "material": 0,
          "mode": 4
        }
      ]
    }
  ],
  "nodes": [
    {
      "children": [
        1
      ],
      "matrix": [
        1.0,
        0.0,
        0.0,
        0.0,
        0.0,
        2.220446049250313e-16,
        -1.0,
        0.0,
        0.0,
        1.0,
        2.220446049250313e-16,
        0.0,
        0.0,
        0.0,
        0.0,
        1.0
      ],
      "name": "Sketchfab_model"
    },
    {
      "children": [
        2
      ],
      "name": "root"
    },
    {
      "children": [
        3
      ],
      "matrix": [
        1.0,
        0.0,
        0.0,
        0.0,
        0.0,
        2.220446049250313e-16,
        1.0,
        0.0,
        0.0,
        -1.0,
        2.220446049250313e-16,
        0.0,
        0.0,
        0.0,
        0.0,
        1.0
      ],
      "name": "GLTF_SceneRootNode"
    },
    {
      "children": [
        4
      ],
      "matrix": [
        0.009999999776482582,
        0.0,
        0.0,
        0.0,
        0.0,
        0.009999999776482582,
        0.0,
        0.0,
        0.0,
        0.0,
        0.009999999776482582,
        0.0,
        0.0,
        0.0,
        0.0,
        1.0
      ],
      "name": "RootNode.0_0"
    },
    {
      "children": [
        5
      ],
      "name": "octopus.1_1"
    },
    {
      "mesh": 0,
      "name": "Object_5"
    }
  ],
  "samplers": [
    {
      "magFilter": 9729,
      "minFilter": 9987,
      "wrapS": 10497,
      "wrapT": 10497
    }
  ],
  "scene": 0,
  "scenes": [
    {
      "name": "Sketchfab_Scene",
      "nodes": [
        0
      ]
    }
  ],
  "textures": [
    {
      "sampler": 0,
      "source": 0
    },
    {
      "sampler": 0,
      "source": 1
    },
    {
      "sampler": 0,
      "source": 2
    },
    {
      "sampler": 0,
      "source": 3
    },
    {
      "sampler": 0,
      "source": 4
    }
  ]
}
